<svg width="70" height="76" viewBox="0 0 70 76" fill="none" xmlns="http://www.w3.org/2000/svg">
<path d="M0 10C0 4.47715 4.47715 0 10 0H60C65.5229 0 70 4.47715 70 10V66C70 71.5229 65.5229 76 60 76H10C4.47715 76 0 71.5229 0 66V10Z" fill="#FFDCD1"/>
<path d="M34.5288 46.0135L27.9288 39.4148L29.8128 37.5282L34.5288 42.2441L45.8422 30.9295L47.7275 32.8148L34.5275 46.0148L34.5288 46.0135ZM28.8715 46.0135L22.2715 39.4148L24.1568 37.5282L30.7568 44.1281L28.8728 46.0135H28.8715ZM34.5288 40.3575L32.6422 38.4721L41.1275 29.9868L43.0142 31.8721L34.5288 40.3562V40.3575Z" fill="#E74040"/>
</svg>
