<svg width="71" height="76" viewBox="0 0 71 76" fill="none" xmlns="http://www.w3.org/2000/svg">
<path d="M0.5 10C0.5 4.47715 4.97715 0 10.5 0H60.5C66.0229 0 70.5 4.47715 70.5 10V66C70.5 71.5229 66.0229 76 60.5 76H10.5C4.97715 76 0.5 71.5229 0.5 66V10Z" fill="#B3E3FF"/>
<path d="M46.166 48.6668H24.8327C23.3599 48.6668 22.166 47.4729 22.166 46.0002V30.0002C22.166 28.5274 23.3599 27.3335 24.8327 27.3335H46.166C47.6388 27.3335 48.8327 28.5274 48.8327 30.0002V46.0002C48.8327 47.4729 47.6388 48.6668 46.166 48.6668ZM24.8327 38.0002V46.0002H46.166V38.0002H24.8327ZM24.8327 30.0002V32.6668H46.166V30.0002H24.8327ZM36.8327 43.3335H27.4993V40.6668H36.8327V43.3335Z" fill="#23A6F0"/>
</svg>
